<svg width="18" height="18" viewBox="0 0 18 18" fill="none" xmlns="http://www.w3.org/2000/svg">
<path d="M15.345 7.2225C15.2397 6.12669 14.8525 5.07681 14.2209 4.17512C13.5894 3.27342 12.7351 2.55063 11.7413 2.07712C10.7475 1.60362 9.64794 1.39554 8.54982 1.47316C7.45169 1.55077 6.39238 1.91142 5.47503 2.52C4.68693 3.04699 4.02532 3.74198 3.53774 4.55505C3.05016 5.36812 2.7487 6.27908 2.65503 7.2225C2.56314 8.15975 2.68104 9.10569 3.00016 9.99171C3.31928 10.8777 3.83163 11.6816 4.50003 12.345L8.47503 16.3275C8.54476 16.3978 8.62771 16.4536 8.7191 16.4917C8.81049 16.5297 8.90852 16.5494 9.00753 16.5494C9.10654 16.5494 9.20457 16.5297 9.29597 16.4917C9.38736 16.4536 9.47031 16.3978 9.54003 16.3275L13.5 12.345C14.1684 11.6816 14.6808 10.8777 14.9999 9.99171C15.319 9.10569 15.4369 8.15975 15.345 7.2225ZM12.45 11.2875L9.00003 14.7375L5.55003 11.2875C5.0416 10.779 4.65213 10.1642 4.40963 9.48732C4.16713 8.8104 4.07762 8.08815 4.14753 7.3725C4.2179 6.64583 4.44886 5.94387 4.82371 5.31738C5.19857 4.6909 5.70795 4.15553 6.31503 3.75C7.11074 3.22143 8.04476 2.93947 9.00003 2.93947C9.9553 2.93947 10.8893 3.22143 11.685 3.75C12.2903 4.15397 12.7985 4.68696 13.1733 5.31071C13.5481 5.93445 13.78 6.63345 13.8525 7.3575C13.9247 8.07557 13.8363 8.80071 13.5938 9.48041C13.3512 10.1601 12.9605 10.7774 12.45 11.2875ZM9.00003 4.5C8.33252 4.5 7.68 4.69794 7.12498 5.06879C6.56997 5.43964 6.13739 5.96675 5.88194 6.58345C5.62649 7.20015 5.55966 7.87875 5.68988 8.53343C5.82011 9.18812 6.14155 9.78949 6.61355 10.2615C7.08555 10.7335 7.68692 11.0549 8.3416 11.1852C8.99629 11.3154 9.67489 11.2485 10.2916 10.9931C10.9083 10.7377 11.4354 10.3051 11.8062 9.75005C12.1771 9.19504 12.375 8.54251 12.375 7.875C12.3731 6.98051 12.0168 6.12321 11.3843 5.49071C10.7518 4.8582 9.89453 4.50198 9.00003 4.5ZM9.00003 9.75C8.62919 9.75 8.26668 9.64004 7.95834 9.43401C7.65 9.22798 7.40967 8.93515 7.26776 8.59253C7.12584 8.24992 7.08871 7.87292 7.16106 7.50921C7.23341 7.14549 7.41198 6.8114 7.67421 6.54918C7.93643 6.28695 8.27052 6.10838 8.63424 6.03603C8.99795 5.96368 9.37495 6.00081 9.71756 6.14273C10.0602 6.28464 10.353 6.52497 10.559 6.83331C10.7651 7.14165 10.875 7.50416 10.875 7.875C10.875 8.37228 10.6775 8.8492 10.3259 9.20083C9.97423 9.55246 9.49731 9.75 9.00003 9.75Z" fill="#333333"/>
</svg>
