<svg width="20" height="20" viewBox="0 0 20 20" fill="none" xmlns="http://www.w3.org/2000/svg">
<path fill-rule="evenodd" clip-rule="evenodd" d="M13.5916 12.4167L18.0916 16.9083C18.2494 17.0648 18.3381 17.2778 18.3381 17.5C18.3381 17.7222 18.2494 17.9352 18.0916 18.0917C17.9352 18.2494 17.7222 18.3382 17.5 18.3382C17.2778 18.3382 17.0648 18.2494 16.9083 18.0917L12.4166 13.5917C11.252 14.5058 9.81384 15.0018 8.33329 15C4.65139 15 1.66663 12.0152 1.66663 8.33332C1.66663 4.65142 4.65139 1.66666 8.33329 1.66666C12.0152 1.66666 15 4.65142 15 8.33332C15.0018 9.81387 14.5058 11.252 13.5916 12.4167ZM8.33329 3.33332C5.57187 3.33332 3.33329 5.5719 3.33329 8.33332C3.33329 11.0947 5.57187 13.3333 8.33329 13.3333C11.0947 13.3333 13.3333 11.0947 13.3333 8.33332C13.3333 5.5719 11.0947 3.33332 8.33329 3.33332Z" fill="#F53C36"/>
</svg>
